<svg width="36" height="36" xmlns="http://www.w3.org/2000/svg" xmlns:svg="http://www.w3.org/2000/svg">
 <g>
  <title>Layer 1</title>
  <g stroke="null" fill="none" fill-rule="evenodd" id="svg_1">
   <path stroke="null" fill="#ffffff" d="m31.99426,10.18655c0.20486,-0.74161 0,-1.28655 -0.97499,-1.28655l-3.22406,0c-0.81977,0 -1.1977,0.47075 -1.40267,0.98985c0,0 -1.63955,4.33838 -3.96218,7.15645c-0.75143,0.81574 -1.09303,1.07529 -1.50292,1.07529c-0.20491,0 -0.50157,-0.25955 -0.50157,-1.0011l0,-6.93393c0,-0.88994 -0.2379,-1.28656 -0.92111,-1.28656l-5.06638,0c-0.51228,0 -0.82038,0.41304 -0.82038,0.80449c0,0.84364 1.16126,1.03819 1.28096,3.41135l0,5.15412c0,1.13002 -0.18799,1.3349 -0.59787,1.3349c-1.09297,0 -3.75164,-4.35776 -5.32847,-9.34419c-0.30902,-0.96918 -0.61896,-1.36068 -1.44295,-1.36068l-3.22406,0c-0.92116,0 -1.1054,0.47075 -1.1054,0.98985c0,0.92703 1.09303,5.52496 5.08932,11.60606c2.66418,4.1529 6.41783,6.40409 9.83349,6.40409c2.04938,0 2.3029,-0.5 2.3029,-1.36125l0,-3.13875c0,-1 0.19415,-1.19957 0.84312,-1.19957c0.47817,0 1.29795,0.25955 3.21075,2.26187c2.18601,2.3731 2.5464,3.4377 3.776,3.4377l3.22406,0c0.92116,0 1.38174,-0.5 1.11604,-1.48672c-0.29076,-0.98343 -1.33446,-2.41024 -2.71935,-4.10162c-0.75149,-0.96406 -1.87863,-2.00226 -2.22023,-2.52148c-0.47817,-0.66736 -0.34154,-0.96407 0,-1.55729c0,0 3.92806,-6.00697 4.33795,-8.04632l0,0z" id="svg_3"/>
  </g>
 </g>
</svg>