<svg width="36" height="36" xmlns="http://www.w3.org/2000/svg" xmlns:svg="http://www.w3.org/2000/svg">
 <g>
  <title>Layer 1</title>
  <g stroke="null" id="svg_2">
   <title fill="#ffffff" stroke="null" transform="translate(0,3.1500000953674316) translate(3.199998617172241,0) translate(-3.700000047683716,-3.299999952316284) translate(-0.30000001192092896,1.2000000476837158) translate(0.20000000298023224,0) translate(-1,0) translate(5.617015838623047,0) translate(0,5.396832466125488) translate(0,-10.79366683959961) translate(-11.234031677246094,0) translate(5.617015838623047,0) translate(-5.617015838623047,0) translate(0,5.396834373474121) translate(0,5.396832466125488) translate(0,-4.849999904632568) translate(5.617015838623047,0) translate(5.617015838623047,0) translate(-5.617015838623047,0) translate(-0.8504939079284668,0) translate(0.20000000298023224,-0.8999999761581421) translate(40,37) translate(-58.75,-51.25) translate(-33.73249053955078,-31.25) scale(0.16951464116573334,0.1704593449831009) translate(33.73249053955078,31.25) translate(33.1358757019043,179.53350830078125) scale(1.1090205907821655,1.0674433708190918) translate(-33.1358757019043,-179.53350830078125) translate(25.62307357788086,168.19021606445312) scale(1,1.033449411392212) translate(-25.62307357788086,-168.19021606445312) translate(170.12657165527344,169.12799072265625) scale(1.0182043313980103,1.0179815292358398) translate(-170.12657165527344,-169.12799072265625) translate(1.656148910522461,1.0282506942749023) scale(1.0357577800750732,1.0353277921676636) translate(-1.656148910522461,-1.0282506942749023) "/>
   <g stroke="null" id="svg_1" fill-rule="evenodd" fill="none">
    <path stroke="null" id="svg_4" d="m28.26252,7.60583c-2.72294,-2.74497 -6.34408,-4.25732 -10.20209,-4.259c-7.94942,0 -14.41936,6.51424 -14.42255,14.52113c-0.00097,2.55942 0.66301,5.05764 1.92519,7.26008l-2.04605,7.52513l7.64553,-2.0194c2.10655,1.1569 4.47828,1.76678 6.89205,1.76762l0.00597,0c7.94859,0 14.41909,-6.51508 14.42242,-14.52211c0.00139,-3.88007 -1.49752,-7.52862 -4.22046,-10.27345l0,0zm-10.20196,22.34303l-0.00486,0c-2.15096,-0.00084 -4.2607,-0.58278 -6.10111,-1.68253l-0.4378,-0.26142l-4.53698,1.19825l1.21098,-4.45405l-0.28502,-0.45689c-1.19988,-1.92159 -1.83375,-4.14275 -1.83277,-6.42356c0.00263,-6.65494 5.3801,-12.06916 11.99241,-12.06916c3.20167,0.00112 6.21156,1.25819 8.47478,3.53985c2.26321,2.28152 3.50875,5.31403 3.5075,8.53923c-0.00263,6.6555 -5.3801,12.07027 -11.98713,12.07027l0,0zm6.57526,-9.04013c-0.36037,-0.1815 -2.13195,-1.05937 -2.46234,-1.18051c-0.33026,-0.12086 -0.57059,-0.1815 -0.81079,0.18178c-0.2402,0.36328 -0.93096,1.18051 -1.14118,1.42279c-0.21023,0.242 -0.42045,0.27246 -0.78068,0.09068c-0.3605,-0.1815 -1.52153,-0.56475 -2.89805,-1.80101c-1.07125,-0.96212 -1.79448,-2.15032 -2.0047,-2.51373c-0.21023,-0.36328 -0.02248,-0.55959 0.15805,-0.74053c0.16207,-0.16264 0.36037,-0.42392 0.54062,-0.63573s0.2402,-0.36328 0.36037,-0.60541s0.06009,-0.4541 -0.03011,-0.63559c-0.09006,-0.18178 -0.81079,-1.96784 -1.11107,-2.69439c-0.29251,-0.70741 -0.5896,-0.6117 -0.81079,-0.62288c-0.20995,-0.01048 -0.45042,-0.01285 -0.69076,-0.01285c-0.2402,0 -0.63054,0.09082 -0.96093,0.4541c-0.33026,0.36328 -1.26121,1.24115 -1.26121,3.02721c0,1.78606 1.29118,3.51134 1.47144,3.75362c0.18011,0.24214 2.54116,3.90718 6.15606,5.47904c0.85963,0.3739 1.53097,0.59703 2.05438,0.76442c0.86338,0.27623 1.64891,0.23711 2.26974,0.14377c0.69242,-0.10423 2.13209,-0.87787 2.43237,-1.72542c0.30028,-0.84769 0.30028,-1.57424 0.21023,-1.72556c-0.09006,-0.15118 -0.33026,-0.242 -0.69062,-0.42377l0,0l0,0z" fill="#ffffff"/>
   </g>
  </g>
 </g>
</svg>